<svg xmlns="http://www.w3.org/2000/svg" viewBox="0 0 512 512">
  <defs>
    <linearGradient id="bg" x1="0" y1="0" x2="1" y2="1">
      <stop offset="0" stop-color="#1f5c4a"/>
      <stop offset="1" stop-color="#0b2620"/>
    </linearGradient>
    <linearGradient id="gold" x1="0" y1="0" x2="0" y2="1">
      <stop offset="0" stop-color="#f2d27a"/>
      <stop offset="1" stop-color="#c99a3a"/>
    </linearGradient>
  </defs>
  <rect width="512" height="512" rx="112" fill="url(#bg)"/>
  <!-- film strip edges -->
  <g fill="#ffffff" opacity=".14">
    <rect x="64" y="96" width="36" height="28" rx="6"/><rect x="64" y="162" width="36" height="28" rx="6"/>
    <rect x="64" y="228" width="36" height="28" rx="6"/><rect x="64" y="294" width="36" height="28" rx="6"/>
    <rect x="64" y="360" width="36" height="28" rx="6"/>
    <rect x="412" y="96" width="36" height="28" rx="6"/><rect x="412" y="162" width="36" height="28" rx="6"/>
    <rect x="412" y="228" width="36" height="28" rx="6"/><rect x="412" y="294" width="36" height="28" rx="6"/>
    <rect x="412" y="360" width="36" height="28" rx="6"/>
  </g>
  <path d="M206 158 L356 256 L206 354 Z" fill="url(#gold)" stroke="#f7e3a6" stroke-width="10" stroke-linejoin="round"/>
</svg>
